<svg width="20" height="20" viewBox="0 0 20 20" fill="none" xmlns="http://www.w3.org/2000/svg">
<g id="assinatura">
<circle id="Ellipse 1" cx="10" cy="9.99988" r="8" fill="#D4C4F1"/>
<g id="Icon">
<path d="M3.7037 13.5703C3.82562 13.2534 3.88658 13.0949 3.99113 13.0223C4.0825 12.9588 4.19557 12.9348 4.30483 12.9557C4.42986 12.9796 4.54993 13.0996 4.79007 13.3398L6.66014 15.2099C6.90028 15.45 7.02035 15.5701 7.04423 15.6951C7.06509 15.8044 7.0411 15.9174 6.97766 16.0088C6.90506 16.1133 6.74657 16.1743 6.42959 16.2962L2 17.9999L3.7037 13.5703Z" fill="white"/>
<path d="M2 17.9999L6.59366 16.2331C6.88748 16.1201 7.03439 16.0636 7.17184 15.9898M2 17.9999L3.76679 13.4062C3.8798 13.1124 3.9363 12.9655 4.01008 12.8281M2 17.9999L3.7037 13.5703C3.82562 13.2534 3.88658 13.0949 3.99113 13.0223C4.0825 12.9588 4.19557 12.9348 4.30483 12.9557C4.42986 12.9796 4.54993 13.0996 4.79007 13.3398L6.66014 15.2099C6.90028 15.45 7.02035 15.5701 7.04423 15.6951C7.06509 15.8044 7.0411 15.9174 6.97766 16.0088C6.90506 16.1133 6.74657 16.1743 6.42959 16.2962L2 17.9999Z" stroke="#1E1A34" stroke-width="1.5" stroke-linecap="round" stroke-linejoin="round"/>
</g>
<path id="Icon_2" d="M17.3143 17.586H10.6919M2 17.9999L6.59366 16.2331C6.88748 16.1201 7.03439 16.0636 7.17184 15.9898C7.29392 15.9243 7.41031 15.8486 7.51978 15.7637C7.64302 15.668 7.75432 15.5567 7.97692 15.3341L17.3142 5.99683C18.2286 5.08247 18.2286 3.60001 17.3142 2.68565C16.3999 1.77129 14.9174 1.77129 14.0031 2.68564L4.66574 12.023C4.44314 12.2456 4.33184 12.3569 4.2362 12.4801C4.15125 12.5896 4.07562 12.706 4.01008 12.828C3.9363 12.9655 3.8798 13.1124 3.76679 13.4062L2 17.9999ZM2 17.9999L3.7037 13.5703C3.82562 13.2533 3.88658 13.0948 3.99113 13.0222C4.0825 12.9588 4.19557 12.9348 4.30483 12.9557C4.42986 12.9795 4.54993 13.0996 4.79007 13.3398L6.66014 15.2098C6.90028 15.45 7.02035 15.57 7.04423 15.6951C7.0651 15.8043 7.0411 15.9174 6.97766 16.0088C6.90506 16.1133 6.74657 16.1743 6.4296 16.2962L2 17.9999Z" stroke="#1E1A34" stroke-width="1.25" stroke-linecap="round" stroke-linejoin="round"/>
</g>
</svg>
