<svg width="21" height="20" viewBox="0 0 21 20" fill="none" xmlns="http://www.w3.org/2000/svg">
<g id="cupom">
<circle id="Ellipse 1" cx="11" cy="10" r="8" fill="#D4C4F1"/>
<path id="Vector 1" d="M13 16.5L6 6.5L2.19945 9.45598C1.80024 9.76648 1.69569 10.3262 1.9559 10.7598L3 12.5C5 11.5 6.5 13 7 14C7.5 15 6 17 6 17L7.45405 18.8176C7.76672 19.2084 8.32021 19.3079 8.74941 19.0504L13 16.5Z" fill="white"/>
<path id="Icon" d="M7.63564 9.016L7.20546 8.40163M9.57146 11.7806L9.14128 11.1663M11.5073 14.5453L11.0771 13.9309M2.96596 8.62342L11.3213 2.77294C12.0095 2.29109 12.3535 2.05016 12.7102 2.00004C13.0238 1.95596 13.3434 2.01231 13.6231 2.16102C13.9411 2.33009 14.182 2.67417 14.6639 3.36232L15.2231 4.16099C14.0355 4.99253 13.7469 6.62934 14.5785 7.8169C15.41 9.00447 17.0468 9.29308 18.2344 8.46154L18.7936 9.26021C19.2755 9.94837 19.5164 10.2924 19.5665 10.6491C19.6106 10.9627 19.5542 11.2823 19.4055 11.562C19.2365 11.88 18.8924 12.1209 18.2042 12.6028L9.84888 18.4532C9.16073 18.9351 8.81665 19.176 8.46004 19.2261C8.14635 19.2702 7.82676 19.2139 7.54707 19.0652C7.22911 18.8961 6.98818 18.552 6.50633 17.8639L5.9471 17.0652C7.13466 16.2336 7.42327 14.5968 6.59173 13.4093C5.76019 12.2217 4.12338 11.9331 2.93582 12.7646L2.37658 11.966C1.89473 11.2778 1.65381 10.9337 1.60369 10.5771C1.5596 10.2634 1.61596 9.94385 1.76467 9.66416C1.93374 9.34619 2.27781 9.10527 2.96596 8.62342Z" stroke="#625F71" stroke-width="1.5" stroke-linecap="round" stroke-linejoin="round"/>
</g>
</svg>
