<svg width="20" height="20" viewBox="0 0 20 20" fill="none" xmlns="http://www.w3.org/2000/svg">
<g clip-path="url(#clip0_2129_3872)">
<path d="M7.08276 12.2221C7.08276 13.2959 7.95333 14.1665 9.02723 14.1665H10.8328C11.9834 14.1665 12.9162 13.2338 12.9162 12.0832C12.9162 10.9326 11.9834 9.99984 10.8328 9.99984H9.16612C8.01551 9.99984 7.08276 9.0671 7.08276 7.9165C7.08276 6.76591 8.01551 5.83317 9.16612 5.83317H10.9717C12.0456 5.83317 12.9162 6.70373 12.9162 7.77762M9.99947 4.58317V5.83317M9.99947 14.1665V15.4165M18.3329 9.99984C18.3329 14.6022 14.6019 18.3332 9.99947 18.3332C5.39703 18.3332 1.66602 14.6022 1.66602 9.99984C1.66602 5.39746 5.39703 1.6665 9.99947 1.6665C14.6019 1.6665 18.3329 5.39746 18.3329 9.99984Z" stroke="#625F71" stroke-width="1.5" stroke-linecap="round" stroke-linejoin="round"/>
</g>
<defs>
<clipPath id="clip0_2129_3872">
<rect width="20.0003" height="20" fill="white"/>
</clipPath>
</defs>
</svg>
