<svg width="20" height="20" viewBox="0 0 20 20" fill="none" xmlns="http://www.w3.org/2000/svg">
<g clip-path="url(#clip0_2129_4135)">
<circle cx="10" cy="9.99988" r="8" fill="#D4C4F1"/>
<path d="M10.8341 2.49976L12.2793 6.25714C12.5143 6.86817 12.6318 7.17368 12.8145 7.43066C12.9765 7.65842 13.1755 7.85741 13.4032 8.01936C13.6602 8.20209 13.9657 8.3196 14.5768 8.55461L18.3342 9.99976L14.5768 11.4449C13.9657 11.6799 13.6602 11.7974 13.4032 11.9801C13.1755 12.1421 12.9765 12.3411 12.8145 12.5689C12.6318 12.8258 12.5143 13.1313 12.2793 13.7424L10.8341 17.4998L9.38892 13.7424C9.15391 13.1313 9.0364 12.8258 8.85367 12.5689C8.69172 12.3411 8.49272 12.1421 8.26496 11.9801C8.00797 11.7974 7.70246 11.6799 7.09142 11.4449L3.33398 9.99976L7.09142 8.55461C7.70246 8.3196 8.00797 8.20209 8.26496 8.01936C8.49272 7.85741 8.69172 7.65842 8.85367 7.43066C9.0364 7.17368 9.15391 6.86817 9.38892 6.25714L10.8341 2.49976Z" fill="white" stroke="#625F71" stroke-width="1.5" stroke-linecap="round" stroke-linejoin="round"/>
<path d="M3.74938 18.3331V14.1664M3.74938 5.83311V1.66644M1.66602 3.74978H5.83274M1.66602 16.2498H5.83274M10.8328 2.49978L9.38764 6.25716C9.15263 6.86819 9.03512 7.1737 8.85239 7.43068C8.69044 7.65844 8.49144 7.85743 8.26368 8.01939C8.0067 8.20211 7.70118 8.31962 7.09014 8.55463L3.33271 9.99978L7.09015 11.4449C7.70118 11.6799 8.0067 11.7974 8.26368 11.9802C8.49144 12.1421 8.69044 12.3411 8.85239 12.5689C9.03513 12.8259 9.15263 13.1314 9.38764 13.7424L10.8328 17.4998L12.278 13.7424C12.513 13.1314 12.6305 12.8259 12.8132 12.5689C12.9752 12.3411 13.1742 12.1421 13.4019 11.9802C13.6589 11.7974 13.9644 11.6799 14.5755 11.4449L18.3329 9.99978L14.5755 8.55463C13.9644 8.31962 13.6589 8.20211 13.4019 8.01938C13.1742 7.85743 12.9752 7.65844 12.8132 7.43068C12.6305 7.1737 12.513 6.86819 12.278 6.25716L10.8328 2.49978Z" stroke="#1E1A34" stroke-width="1.25" stroke-linecap="round" stroke-linejoin="round"/>
</g>
<defs>
<clipPath id="clip0_2129_4135">
<rect width="20.0003" height="20" fill="white"/>
</clipPath>
</defs>
</svg>
