<svg width="20" height="20" viewBox="0 0 20 20" fill="none" xmlns="http://www.w3.org/2000/svg">
<g clip-path="url(#clip0_2129_3858)">
<path d="M11.6674 1.89111V5.33323C11.6674 5.79994 11.6674 6.0333 11.7583 6.21156C11.8382 6.36836 11.9656 6.49584 12.1225 6.57574C12.3007 6.66656 12.5341 6.66656 13.0008 6.66656H16.443M11.6674 14.1665H6.66737M13.3341 10.8332H6.66737M16.6675 8.32336V14.3332C16.6675 15.7333 16.6675 16.4334 16.395 16.9681C16.1553 17.4386 15.7729 17.821 15.3025 18.0607C14.7677 18.3332 14.0676 18.3332 12.6675 18.3332H7.33404C5.93389 18.3332 5.23381 18.3332 4.69903 18.0607C4.22862 17.821 3.84616 17.4386 3.60647 16.9681C3.33398 16.4334 3.33398 15.7333 3.33398 14.3332V5.6665C3.33398 4.26637 3.33398 3.56631 3.60647 3.03153C3.84616 2.56112 4.22862 2.17867 4.69903 1.93899C5.23381 1.6665 5.93389 1.6665 7.33404 1.6665H10.0106C10.622 1.6665 10.9278 1.6665 11.2155 1.73558C11.4706 1.79682 11.7145 1.89783 11.9382 2.0349C12.1904 2.18951 12.4066 2.4057 12.839 2.83808L15.4959 5.49493C15.9283 5.92731 16.1445 6.1435 16.2991 6.39579C16.4362 6.61947 16.5372 6.86333 16.5984 7.11842C16.6675 7.40614 16.6675 7.71188 16.6675 8.32336Z" stroke="#625F71" stroke-width="1.5" stroke-linecap="round" stroke-linejoin="round"/>
</g>
<defs>
<clipPath id="clip0_2129_3858">
<rect width="20.0003" height="20" fill="white"/>
</clipPath>
</defs>
</svg>
