<svg width="20" height="20" viewBox="0 0 20 20" fill="none" xmlns="http://www.w3.org/2000/svg">
<g id="saque-comissao">
<circle id="Ellipse 1" cx="10" cy="9.99988" r="8" fill="#D4C4F1"/>
<path id="Icon" d="M18 8.28559H2M4.8 15.9999H4.56C3.66392 15.9999 3.21587 15.9999 2.87362 15.813C2.57256 15.6487 2.32779 15.3864 2.17439 15.0639C2 14.6972 2 14.2171 2 13.257V6.74274C2 5.78265 2 5.3026 2.17439 4.93589C2.32779 4.61333 2.57256 4.35108 2.87362 4.18672C3.21587 3.99988 3.66392 3.99988 4.56 3.99988H15.44C16.3361 3.99988 16.7841 3.99988 17.1264 4.18673C17.4274 4.35108 17.6722 4.61333 17.8256 4.9359C18 5.3026 18 5.78265 18 6.74274V13.257C18 14.2171 18 14.6972 17.8256 15.0639C17.6722 15.3864 17.4274 15.6487 17.1264 15.813C16.7841 15.9999 16.3361 15.9999 15.44 15.9999H15.2" stroke="#1E1A34" stroke-width="1.25" stroke-linecap="round" stroke-linejoin="round"/>
<path id="Icon_2" d="M8.71429 11.3999C8.71429 11.2599 8.71429 11.1899 8.73764 11.1364C8.75819 11.0893 8.79097 11.0511 8.83129 11.0271C8.87713 10.9999 8.93713 10.9999 9.05714 10.9999H10.9429C11.0629 10.9999 11.1229 10.9999 11.1687 11.0271C11.209 11.0511 11.2418 11.0893 11.2624 11.1364C11.2857 11.1899 11.2857 11.2599 11.2857 11.3999V13.3399C11.2857 13.3959 11.2857 13.4239 11.2966 13.4453C11.3062 13.4641 11.3215 13.4794 11.3403 13.489C11.3617 13.4999 11.3897 13.4999 11.4457 13.4999H13.1093C13.3918 13.4999 13.533 13.4999 13.6023 13.5569C13.6624 13.6065 13.696 13.6813 13.6931 13.7592C13.6898 13.8489 13.5959 13.9545 13.4082 14.1656L10.299 17.6635C10.1956 17.7799 10.1439 17.838 10.0828 17.8595C10.0292 17.8783 9.97079 17.8783 9.91718 17.8595C9.85613 17.838 9.80443 17.7799 9.70104 17.6635L6.59177 14.1656C6.40409 13.9545 6.31024 13.8489 6.30689 13.7592C6.30397 13.6813 6.33756 13.6065 6.39772 13.5569C6.46698 13.4999 6.60823 13.4999 6.89074 13.4999H8.55429C8.61029 13.4999 8.63829 13.4999 8.65968 13.489C8.6785 13.4794 8.6938 13.4641 8.70339 13.4453C8.71429 13.4239 8.71429 13.3959 8.71429 13.3399V11.3999Z" fill="white" stroke="#1E1A34" stroke-linecap="round" stroke-linejoin="round"/>
</g>
</svg>
