<svg width="20" height="20" viewBox="0 0 20 20" fill="none" xmlns="http://www.w3.org/2000/svg">
<path d="M2.5 6.66656L12.5001 6.66657M12.5001 6.66657C12.5001 8.04728 13.6194 9.16656 15.0002 9.16656C16.3809 9.16656 17.5002 8.04728 17.5002 6.66656C17.5002 5.28585 16.3809 4.16656 15.0002 4.16656C13.6194 4.16656 12.5001 5.28585 12.5001 6.66657ZM7.50007 13.3332L17.5002 13.3332M7.50007 13.3332C7.50007 14.7139 6.38077 15.8332 5.00004 15.8332C3.6193 15.8332 2.5 14.7139 2.5 13.3332C2.5 11.9525 3.6193 10.8332 5.00004 10.8332C6.38077 10.8332 7.50007 11.9525 7.50007 13.3332Z" stroke="#625F71" stroke-width="1.5" stroke-linecap="round" stroke-linejoin="round"/>
</svg>
