<svg width="20" height="20" viewBox="0 0 20 20" fill="none" xmlns="http://www.w3.org/2000/svg">
<path d="M13.3323 6.66654C13.3323 7.5506 12.9811 8.39845 12.356 9.02357C11.7309 9.64869 10.883 9.99988 9.99895 9.99988C9.11489 9.99988 8.26703 9.64869 7.6419 9.02357C7.01677 8.39845 6.66557 7.5506 6.66557 6.66654M3.02653 6.1677L2.44319 13.1677C2.31788 14.6715 2.25522 15.4233 2.50942 16.0034C2.73275 16.513 3.11971 16.9335 3.60902 17.1984C4.16593 17.4999 4.92043 17.4999 6.42943 17.4999H13.5685C15.0775 17.4999 15.832 17.4999 16.3889 17.1984C16.8782 16.9335 17.2652 16.513 17.4885 16.0034C17.7427 15.4233 17.68 14.6715 17.5547 13.1677L16.9714 6.1677C16.8635 4.87384 16.8096 4.22691 16.5231 3.73726C16.2708 3.30608 15.8951 2.96038 15.4444 2.74475C14.9327 2.49988 14.2835 2.49988 12.9851 2.49988L7.01278 2.49988C5.71441 2.49988 5.06523 2.49988 4.55347 2.74475C4.10282 2.96038 3.72711 3.30608 3.4748 3.73726C3.18827 4.2269 3.13436 4.87384 3.02653 6.1677Z" stroke="#625F71" stroke-width="1.5" stroke-linecap="round" stroke-linejoin="round"/>
</svg>
