<svg width="20" height="20" viewBox="0 0 20 20" fill="none" xmlns="http://www.w3.org/2000/svg">
<g clip-path="url(#clip0_2129_3879)">
<path d="M9.99947 4.58291L6.13407 10.2053C5.90138 10.5438 5.78503 10.713 5.79202 10.8537C5.7981 10.9762 5.85786 11.0898 5.95537 11.1642C6.06733 11.2497 6.2727 11.2497 6.68344 11.2497H9.99947V15.4164L13.8649 9.794C14.0976 9.45553 14.2139 9.2863 14.2069 9.14563C14.2008 9.02312 14.1411 8.90951 14.0436 8.83509C13.9316 8.74963 13.7262 8.74963 13.3155 8.74963H9.99947V4.58291Z" stroke="#625F71" stroke-width="1.5" stroke-linecap="round" stroke-linejoin="round"/>
<path d="M9.99947 18.3331C14.6019 18.3331 18.3329 14.6021 18.3329 9.99965C18.3329 5.39721 14.6019 1.6662 9.99947 1.6662C5.39703 1.6662 1.66602 5.39721 1.66602 9.99965C1.66602 14.6021 5.39703 18.3331 9.99947 18.3331Z" stroke="#625F71" stroke-width="1.5" stroke-linecap="round" stroke-linejoin="round"/>
</g>
<defs>
<clipPath id="clip0_2129_3879">
<rect width="20.0003" height="20.0003" fill="white" transform="translate(0 -0.000488281)"/>
</clipPath>
</defs>
</svg>
