<svg width="28" height="28" viewBox="0 0 28 28" fill="none" xmlns="http://www.w3.org/2000/svg">
<path d="M14.0008 25H10.0008M18.0008 12C18.0008 10.4087 17.3686 8.88258 16.2434 7.75736C15.1182 6.63214 13.5921 6 12.0008 6C10.4095 6 8.88333 6.63214 7.75811 7.75736C6.63289 8.88258 6.00075 10.4087 6.00075 12C6.00075 15.0902 5.22122 17.206 4.35042 18.6054C3.61588 19.7859 3.24861 20.3761 3.26208 20.5408C3.27699 20.7231 3.31561 20.7926 3.46253 20.9016C3.59521 21 4.19334 21 5.38961 21H18.6119C19.8082 21 20.4063 21 20.539 20.9016C20.6859 20.7926 20.7245 20.7231 20.7394 20.5408C20.7529 20.3761 20.3856 19.7859 19.6511 18.6054C18.7803 17.206 18.0008 15.0902 18.0008 12Z" stroke="white" stroke-width="1.5" stroke-linecap="round" stroke-linejoin="round"/>
<rect x="20" width="8" height="8" rx="4" fill="#7249BC"/>
</svg>
